<svg width="530" height="200" viewBox="535 118 530 200" xmlns="http://www.w3.org/2000/svg">
  <rect x="535" y="118" width="530" height="200" fill="#0d1117"/>

  <g transform="translate(0, 36)">
  <g fill="#7ee8ff">
  <path d="M528 1Q352 1 262.5 77.0Q173 153 161 315Q159 346 176.0 363.0Q193 380 223 380Q253 380 268.5 364.0Q284 348 288 318Q295 211 349.0 169.0Q403 127 528 127H816Q954 127 1006.5 179.5Q1059 232 1059 368Q1059 506 1005.5 558.5Q952 611 816 611H551Q370 611 285.0 696.5Q200 782 200 962Q200 1142 284.5 1226.5Q369 1311 549 1311H815Q980 1311 1064.5 1239.5Q1149 1168 1161 1016Q1164 986 1147.0 968.5Q1130 951 1099 951Q1070 951 1054.0 967.5Q1038 984 1035 1013Q1027 1110 977.0 1147.5Q927 1185 815 1185H549Q421 1185 373.5 1136.5Q326 1088 326 962Q326 836 374.5 786.5Q423 737 551 737H816Q1005 737 1095.0 647.5Q1185 558 1185 368Q1185 179 1095.5 90.0Q1006 1 816 1Z" transform="translate(646.06,168.00) scale(0.056000,-0.056000)"/>
  <path d="M257 0Q194 0 194 63V1248Q194 1311 257 1311H739Q992 1311 1109.0 1194.0Q1226 1077 1226 824V487Q1226 235 1109.5 117.5Q993 0 739 0ZM320 126H739Q873 126 952.0 160.5Q1031 195 1065.5 274.5Q1100 354 1100 487V824Q1100 957 1065.5 1036.5Q1031 1116 952.0 1150.5Q873 1185 739 1185H320Z" transform="translate(731.38,168.00) scale(0.056000,-0.056000)"/>
  <path d="M257 0Q194 0 194 63V1248Q194 1311 257 1311H983Q1013 1311 1029.5 1294.5Q1046 1278 1046 1248Q1046 1185 983 1185H320V726H758Q821 726 821 663Q821 600 758 600H320V63Q320 0 257 0Z" transform="translate(819.00,168.00) scale(0.056000,-0.056000)"/>
  <path d="M129 14Q79 49 113 102L503 673L121 1209Q87 1259 137 1297Q189 1333 225 1281L586 775L956 1282Q995 1333 1044 1295Q1095 1258 1058 1208L664 666L1066 103Q1102 52 1050 14Q999 -21 963 30L581 564L217 30Q182 -20 129 14Z" transform="translate(887.58,168.00) scale(0.056000,-0.056000)"/>
  </g>

  <line x1="640" y1="196" x2="960" y2="196" stroke="#7ee8ff" stroke-width="1.5"/>
  <circle cx="640" cy="196" r="2.5" fill="#7ee8ff"/>
  <circle cx="960" cy="196" r="2.5" fill="#7ee8ff"/>

  <g fill="#8fa3ad">
  <path d="M590 0Q562 0 552 26L24 1206Q12 1233 27.5 1249.5Q43 1266 62 1266Q90 1266 100 1240L611 97H581L1092 1240Q1102 1266 1130 1266Q1153 1266 1166.5 1249.5Q1180 1233 1168 1206L640 26Q630 0 602 0Z" transform="translate(573.38,226.00) scale(0.016000,-0.016000)"/>
  <path d="M222 0Q180 0 180 42V1224Q180 1266 222 1266H982Q1024 1266 1024 1224Q1024 1182 982 1182H264V684H746Q788 684 788 642Q788 600 746 600H264V84H982Q1024 84 1024 42Q1024 0 982 0Z" transform="translate(594.51,226.00) scale(0.016000,-0.016000)"/>
  <path d="M566 0Q353 0 256.5 96.5Q160 193 160 406V860Q160 1075 256.5 1170.5Q353 1266 564 1266H806Q989 1266 1076.0 1190.0Q1163 1114 1170 944Q1172 923 1161.5 911.5Q1151 900 1130 900Q1089 900 1086 942Q1080 1077 1016.5 1129.5Q953 1182 806 1182H564Q446 1182 376.0 1151.0Q306 1120 275.0 1049.5Q244 979 244 860V406Q244 288 275.5 217.5Q307 147 377.5 115.5Q448 84 566 84H806Q953 84 1016.5 136.5Q1080 189 1086 324Q1089 366 1130 366Q1151 366 1161.5 354.5Q1172 343 1170 322Q1163 153 1076.0 76.5Q989 0 806 0Z" transform="translate(614.55,226.00) scale(0.016000,-0.016000)"/>
  <path d="M552 -2Q534 -2 522.0 10.0Q510 22 510 40V1184H72Q54 1184 42.0 1196.0Q30 1208 30 1226Q30 1244 42.0 1256.0Q54 1268 72 1268H1032Q1050 1268 1062.0 1256.0Q1074 1244 1074 1226Q1074 1208 1062.0 1196.0Q1050 1184 1032 1184H594V40Q594 22 582.0 10.0Q570 -2 552 -2Z" transform="translate(636.96,226.00) scale(0.016000,-0.016000)"/>
  <path d="M566 0Q353 0 256.5 96.5Q160 193 160 406V860Q160 1075 256.5 1171.5Q353 1268 564 1266H806Q1019 1266 1115.5 1169.5Q1212 1073 1212 860V406Q1212 193 1115.5 96.5Q1019 0 806 0ZM566 84H806Q924 84 994.5 115.5Q1065 147 1096.5 217.5Q1128 288 1128 406V860Q1128 978 1096.5 1048.5Q1065 1119 994.5 1150.5Q924 1182 806 1182H564Q446 1183 376.0 1152.0Q306 1121 275.0 1050.0Q244 979 244 860V406Q244 288 275.5 217.5Q307 147 377.5 115.5Q448 84 566 84Z" transform="translate(657.10,226.00) scale(0.016000,-0.016000)"/>
  <path d="M1052 -2Q1034 -12 1019.5 -9.0Q1005 -6 994 10L660 534H264V42Q264 0 222 0Q180 0 180 42V1224Q180 1266 222 1266H690Q857 1266 941.5 1181.5Q1026 1097 1026 930V870Q1026 722 958.5 638.5Q891 555 758 538L1064 56Q1088 19 1052 -2ZM264 618H690Q821 618 881.5 679.0Q942 740 942 870V930Q942 1061 881.5 1121.5Q821 1182 690 1182H264Z" transform="translate(680.19,226.00) scale(0.016000,-0.016000)"/>
  <path d="M552 -2Q534 -2 522.0 10.0Q510 22 510 40V1184H72Q54 1184 42.0 1196.0Q30 1208 30 1226Q30 1244 42.0 1256.0Q54 1268 72 1268H1032Q1050 1268 1062.0 1256.0Q1074 1244 1074 1226Q1074 1208 1062.0 1196.0Q1050 1184 1032 1184H594V40Q594 22 582.0 10.0Q570 -2 552 -2Z" transform="translate(714.06,226.00) scale(0.016000,-0.016000)"/>
  <path d="M222 0Q180 0 180 42V1224Q180 1266 222 1266H982Q1024 1266 1024 1224Q1024 1182 982 1182H264V684H746Q788 684 788 642Q788 600 746 600H264V84H982Q1024 84 1024 42Q1024 0 982 0Z" transform="translate(734.20,226.00) scale(0.016000,-0.016000)"/>
  <path d="M86 10Q53 34 74 68L488 670L110 1198Q86 1231 120 1256Q154 1281 180 1246L544 736L924 1248Q949 1282 984 1256Q1017 1232 992 1198L598 662L1024 68Q1048 35 1014 10Q981 -14 956 20L540 598L144 22Q120 -14 86 10Z" transform="translate(754.23,226.00) scale(0.016000,-0.016000)"/>
  <path d="M552 -2Q534 -2 522.0 10.0Q510 22 510 40V1184H72Q54 1184 42.0 1196.0Q30 1208 30 1226Q30 1244 42.0 1256.0Q54 1268 72 1268H1032Q1050 1268 1062.0 1256.0Q1074 1244 1074 1226Q1074 1208 1062.0 1196.0Q1050 1184 1032 1184H594V40Q594 22 582.0 10.0Q570 -2 552 -2Z" transform="translate(774.53,226.00) scale(0.016000,-0.016000)"/>
  <path d="M576 0Q363 0 266.5 96.5Q170 193 170 406V1224Q170 1242 182.0 1254.0Q194 1266 212 1266Q230 1266 242.0 1254.0Q254 1242 254 1224V406Q254 288 285.5 217.5Q317 147 387.5 115.5Q458 84 576 84H816Q934 84 1004.5 115.5Q1075 147 1106.5 217.5Q1138 288 1138 406V1224Q1138 1242 1150.0 1254.0Q1162 1266 1180 1266Q1198 1266 1210.0 1254.0Q1222 1242 1222 1224V406Q1222 193 1125.5 96.5Q1029 0 816 0Z" transform="translate(794.68,226.00) scale(0.016000,-0.016000)"/>
  <path d="M1052 -2Q1034 -12 1019.5 -9.0Q1005 -6 994 10L660 534H264V42Q264 0 222 0Q180 0 180 42V1224Q180 1266 222 1266H690Q857 1266 941.5 1181.5Q1026 1097 1026 930V870Q1026 722 958.5 638.5Q891 555 758 538L1064 56Q1088 19 1052 -2ZM264 618H690Q821 618 881.5 679.0Q942 740 942 870V930Q942 1061 881.5 1121.5Q821 1182 690 1182H264Z" transform="translate(817.99,226.00) scale(0.016000,-0.016000)"/>
  <path d="M222 0Q180 0 180 42V1224Q180 1266 222 1266H982Q1024 1266 1024 1224Q1024 1182 982 1182H264V684H746Q788 684 788 642Q788 600 746 600H264V84H982Q1024 84 1024 42Q1024 0 982 0Z" transform="translate(838.79,226.00) scale(0.016000,-0.016000)"/>
  <path d="M566 0Q353 0 256.5 96.5Q160 193 160 406V860Q160 1075 256.5 1170.5Q353 1266 564 1266H806Q989 1266 1076.0 1190.0Q1163 1114 1170 944Q1172 923 1161.5 911.5Q1151 900 1130 900Q1089 900 1086 942Q1080 1077 1016.5 1129.5Q953 1182 806 1182H564Q446 1182 376.0 1151.0Q306 1120 275.0 1049.5Q244 979 244 860V406Q244 288 275.5 217.5Q307 147 377.5 115.5Q448 84 566 84H806Q953 84 1016.5 136.5Q1080 189 1086 324Q1089 366 1130 366Q1151 366 1161.5 354.5Q1172 343 1170 322Q1163 153 1076.0 76.5Q989 0 806 0Z" transform="translate(871.89,226.00) scale(0.016000,-0.016000)"/>
  <path d="M566 0Q353 0 256.5 96.5Q160 193 160 406V860Q160 1075 256.5 1171.5Q353 1268 564 1266H806Q1019 1266 1115.5 1169.5Q1212 1073 1212 860V406Q1212 193 1115.5 96.5Q1019 0 806 0ZM566 84H806Q924 84 994.5 115.5Q1065 147 1096.5 217.5Q1128 288 1128 406V860Q1128 978 1096.5 1048.5Q1065 1119 994.5 1150.5Q924 1182 806 1182H564Q446 1183 376.0 1152.0Q306 1121 275.0 1050.0Q244 979 244 860V406Q244 288 275.5 217.5Q307 147 377.5 115.5Q448 84 566 84Z" transform="translate(894.30,226.00) scale(0.016000,-0.016000)"/>
  <path d="M222 0Q180 0 180 42V1224Q180 1266 222 1266Q255 1266 272 1238L778 460L758 458L1264 1238Q1281 1266 1314 1266Q1354 1266 1354 1224V42Q1354 0 1312 0Q1270 0 1270 42V1140L1294 1132L818 400Q801 372 768 372Q735 372 718 400L242 1132L264 1122V42Q264 0 222 0Z" transform="translate(917.39,226.00) scale(0.016000,-0.016000)"/>
  <path d="M222 0Q180 0 180 42V1224Q180 1266 222 1266H690Q857 1266 941.5 1181.5Q1026 1097 1026 930V870Q1026 704 941.5 619.0Q857 534 690 534H264V42Q264 0 222 0ZM264 618H690Q821 618 881.5 679.0Q942 740 942 870V930Q942 1061 881.5 1121.5Q821 1182 690 1182H264Z" transform="translate(942.26,226.00) scale(0.016000,-0.016000)"/>
  <path d="M222 0Q204 0 192.0 12.0Q180 24 180 42V1226Q180 1244 192.0 1256.0Q204 1268 222 1268Q240 1268 252.0 1256.0Q264 1244 264 1226V42Q264 24 252.0 12.0Q240 0 222 0Z" transform="translate(962.21,226.00) scale(0.016000,-0.016000)"/>
  <path d="M222 0Q180 0 180 42V1224Q180 1266 222 1266Q264 1266 264 1224V84H890Q932 84 932 42Q932 0 890 0Z" transform="translate(975.09,226.00) scale(0.016000,-0.016000)"/>
  <path d="M222 0Q180 0 180 42V1224Q180 1266 222 1266H982Q1024 1266 1024 1224Q1024 1182 982 1182H264V684H746Q788 684 788 642Q788 600 746 600H264V84H982Q1024 84 1024 42Q1024 0 982 0Z" transform="translate(993.78,226.00) scale(0.016000,-0.016000)"/>
  <path d="M1052 -2Q1034 -12 1019.5 -9.0Q1005 -6 994 10L660 534H264V42Q264 0 222 0Q180 0 180 42V1224Q180 1266 222 1266H690Q857 1266 941.5 1181.5Q1026 1097 1026 930V870Q1026 722 958.5 638.5Q891 555 758 538L1064 56Q1088 19 1052 -2ZM264 618H690Q821 618 881.5 679.0Q942 740 942 870V930Q942 1061 881.5 1121.5Q821 1182 690 1182H264Z" transform="translate(1013.82,226.00) scale(0.016000,-0.016000)"/>
  </g>
  </g>
</svg>
